PathFileType	4	(X/Y/Z)	Run_500 01
DataRate	CameraRate	NumFrames	NumMarkers	Units	OrigDataRate	OrigDataStartFrame	OrigNumFrames
120	120	4	41	mm	120	180	128
Frame#	Time	RASI			LPSI			RPSI			RTH3			LTH1			LTH2			LTH3			RTB1			RTB2			RTB3			LTB1			LTB2			LTB3			RCAL			RTOE			RMT5			LCAL			LTOE			LMT5			LACR			RACR			CLAV			C7			RUA1			RUA2			RUA3			RLEL			LUA1			LUA2			LUA3			LLEL			LMEL			RFAsuperior			RFAradius			RFAulna			LFAsuperior			LFAradius			LFAulna			LASI			RTH1			RMEL			
		X1	Y1	Z1	X2	Y2	Z2	X3	Y3	Z3	X4	Y4	Z4	X5	Y5	Z5	X6	Y6	Z6	X7	Y7	Z7	X8	Y8	Z8	X9	Y9	Z9	X10	Y10	Z10	X11	Y11	Z11	X12	Y12	Z12	X13	Y13	Z13	X14	Y14	Z14	X15	Y15	Z15	X16	Y16	Z16	X17	Y17	Z17	X18	Y18	Z18	X19	Y19	Z19	X20	Y20	Z20	X21	Y21	Z21	X22	Y22	Z22	X23	Y23	Z23	X24	Y24	Z24	X25	Y25	Z25	X26	Y26	Z26	X27	Y27	Z27	X28	Y28	Z28	X29	Y29	Z29	X30	Y30	Z30	X31	Y31	Z31	X32	Y32	Z32	X33	Y33	Z33	X34	Y34	Z34	X35	Y35	Z35	X36	Y36	Z36	X37	Y37	Z37	X38	Y38	Z38	X39	Y39	Z39	X40	Y40	Z40	X41	Y41	Z41	

179	1.733333	962.406143	955.462673	-200.105891	820.973747	1005.645036	-367.341848	805.213207	1010.330441	-268.699917	865.892139	540.353357	-205.397102	979.3952389999999	794.814079	-481.478224	1098.282305	746.50708	-467.594748	1109.037832	625.032859	-455.933683	832.774208	314.646699	-290.82646	769.932053	278.648718	-229.390803	744.95638	226.961821	-297.895075	1086.100221	467.925975	-371.944825	1003.619362	484.542839	-450.55688	919.1368220000001	431.888834	-383.061561	552.62209	132.743532	-299.722643	748.678274	70.276417	-339.431062	730.140131	60.527671	-243.609533	746.726736	483.688511	-392.462634	814.2730319999999	288.827671	-361.985659	797.327259	293.439635	-453.260574	969.024048	1431.041616	-504.33374	973.18682	1425.737892	-108.154697	1029.346523	1418.033051	-286.681051	904.812203	1481.295044	-318.891554	918.001119	1297.962775	-49.375896	842.56456	1296.504171	-59.612809	876.738684	1226.32361	-14.752217	846.246078	1165.7996	12.066882	878.738554	1330.679616	-568.402392	800.4398650000001	1314.065365	-563.7565049999999	842.644874	1246.757497	-585.141439	771.364647	1201.034538	-612.192598	729.3136490000001	1214.157266	-538.2954549999999	952.657521	1106.821082	-30.278147	1022.977563	1055.850568	-113.348586	1018.862396	1008.600607	-60.096834	847.699155	1100.807399	-578.500371	917.102521	1049.780978	-482.646895	898.228262	1010.263884	-536.515182	982.071062	962.281024	-427.948008	890.941719	787.197839	-143.05699	807.209074	1141.848343	-57.253236	
180	1.741667	969.194477	959.328181	-198.163007	822.594612	1011.717198	-364.893904	811.112922	1014.357633	-266.16677	844.987407	546.1278620000001	-206.065726	984.191186	805.105917	-481.819032	1103.304152	760.542793	-466.221661	1119.252371	639.7341719999999	-453.471711	801.2011199999999	321.208771	-289.184021	737.1886909999999	286.993221	-227.934321	711.262994	234.835177	-296.681522	1106.841675	474.523489	-370.243599	1022.535866	483.401283	-447.894449	943.817857	420.880058	-381.743378	517.913833	146.653447	-297.456085	708.723189	70.35966500000001	-339.596791	689.6232209999999	60.748973	-244.089822	766.92594	452.973566	-391.346776	858.883545	268.292378	-359.949749	840.979328	269.886974	-451.052812	963.288937	1438.188161	-504.877405	977.203489	1432.422329	-110.086699	1028.925313	1424.182393	-289.76981	903.513786	1486.347037	-318.679145	924.6287	1304.02978	-50.086388	849.074092	1302.096124	-58.399556	885.200359	1232.173974	-14.752415	855.979767	1170.896399	12.333094	870.8847929999999	1341.357372	-568.450561	792.6711780000001	1326.055403	-561.790688	832.9122149999999	1258.18142	-585.108932	760.148601	1214.141318	-610.938536	719.871546	1227.567908	-535.885931	963.805745	1117.858112	-33.601433	1034.967821	1072.0877	-118.754604	1033.835874	1023.40621	-66.776774	836.637801	1113.990737	-579.039216	906.810929	1061.200172	-484.152674	887.220005	1022.246787	-538.1516370000001	983.238506	969.613644	-428.073901	888.2775820000001	791.508259	-144.180153	816.432124	1146.425556	-56.426991	
181	1.75	977.5400079999999	963.027239	-196.927296	824.745915	1018.054814	-362.383282	818.514144	1018.356463	-263.865198	825.292944	553.807182	-205.920948	989.754755	815.824053	-482.65135	1108.454246	774.2078	-464.817573	1127.627408	653.488596	-450.982474	770.435439	330.12371	-287.139728	705.522279	297.595357	-225.947813	679.177764	244.405838	-294.433246	1125.984341	480.699856	-368.799712	1041.138548	481.055446	-445.205746	969.119863	409.542525	-380.158837	485.664247	162.805944	-294.980636	668.876071	70.19027199999999	-339.783558	649.415754	60.996274	-244.538889	790.2518659999999	421.473063	-389.486424	904.8799289999999	249.859846	-357.876089	886.724842	248.621352	-448.590307	957.750622	1445.469476	-505.185291	980.990733	1439.386279	-112.173162	1028.329226	1430.593195	-292.859113	902.2242	1491.687397	-318.533398	930.817844	1310.615814	-50.816806	855.130099	1307.948601	-57.252399	893.359014	1238.542848	-14.797563	865.188314	1176.605221	12.537848	863.36259	1352.29941	-568.068295	785.412793	1338.220732	-559.071769	823.886928	1270.038209	-584.705952	749.670347	1227.449829	-609.406871	711.238543	1241.027583	-533.175522	973.7733050000001	1129.244417	-36.956973	1045.276805	1088.311483	-124.102468	1046.991066	1038.371431	-73.688721	826.298939	1127.153834	-579.08761	897.457172	1073.043143	-485.121505	877.169743	1034.520138	-539.209354	985.01747	977.42935	-428.026996	886.790691	798.058665	-144.643593	824.6620349999999	1151.851909	-55.500812	
182	1.758333	985.773064	966.767233	-196.860769	827.379059	1024.486378	-360.017263	825.684285	1022.558265	-261.818997	806.940929	563.327499	-204.688263	995.679887	826.727398	-483.457095	1113.691485	787.392746	-463.380445	1134.126836	665.758146	-448.275507	741.2444850000001	341.06207	-284.277367	675.669337	310.110385	-223.062331	649.73581	255.240087	-290.917248	1143.824134	486.376359	-367.116736	1059.755896	477.449099	-442.577966	995.576969	398.169539	-378.066159	456.856406	180.116708	-292.422017	629.904661	69.94894600000001	-339.629736	610.183923	61.337715	-244.674336	816.812139	389.717075	-387.216126	951.9109549999999	233.69303	-355.361569	934.205481	229.954596	-445.741345	952.476752	1452.609217	-505.273704	984.584786	1446.468435	-114.362061	1027.571676	1436.999009	-295.809002	900.9385579999999	1497.088228	-318.388324	936.6215099999999	1317.522615	-51.524303	860.77642	1313.937041	-56.117575	901.211637	1245.274755	-14.748582	873.946126	1182.728034	12.7711	856.18591	1363.095851	-567.232318	778.656058	1350.287659	-555.722941	815.509172	1282.08096	-584.062191	739.878192	1240.584017	-607.623855	703.377732	1254.235243	-530.300833	982.685707	1140.654212	-40.232942	1053.894243	1104.064664	-129.367761	1058.437924	1053.100982	-80.69643000000001	816.589383	1139.958012	-578.686425	889.052546	1085.0964	-485.710837	867.977876	1046.80319	-539.669006	987.3862810000001	985.641544	-428.179985	886.525036	805.678231	-144.667473	832.0600899999999	1157.831578	-54.438188	
